<?xml version="1.0" encoding="UTF-8"?>
<svg width="512px" height="384px" viewBox="0 0 512 384" version="1.1" xmlns="http://www.w3.org/2000/svg" xmlns:xlink="http://www.w3.org/1999/xlink">
    <title>blueprint</title>
    <g id="Page-1" stroke="none" stroke-width="1" fill="none" fill-rule="evenodd">
        <g id="blueprint" fill="#666666" fill-rule="nonzero">
            <path d="M480,0 C462.326888,0 448,14.326888 448,32 L64,32 C64,14.326888 49.673112,0 32,0 C14.326888,0 0,14.326888 0,32 L0,360 C0,373.254834 10.745166,384 24,384 L488,384 C501.254834,384 512,373.254834 512,360 L512,32 C512,14.326888 497.673112,0 480,0 Z M464,32 C464,23.163444 471.163444,16 480,16 C488.836556,16 496,23.163444 496,32 L496,324.296 C486.102271,318.568174 473.897729,318.568174 464,324.296 L464,32 Z M496,360 C496,364.418278 492.418278,368 488,368 L24,368 C19.581722,368 16,364.418278 16,360 L16,352 C16,343.163444 23.163444,336 32,336 C40.836556,336 48,343.163444 48,352 C48,356.418278 51.581722,360 56,360 C60.418278,360 64,356.418278 64,352 L64,104 C64,99.581722 60.418278,96 56,96 C51.581722,96 48,99.581722 48,104 L48,324.296 C38.0332466,318.831298 25.9667534,318.831298 16,324.296 L16,32 C16,23.163444 23.163444,16 32,16 C40.836556,16 48,23.163444 48,32 L48,72 C48,76.418278 51.581722,80 56,80 C60.418278,80 64,76.418278 64,72 L64,48 L448,48 L448,352 C448,356.418278 451.581722,360 456,360 C460.418278,360 464,356.418278 464,352 C464,343.163444 471.163444,336 480,336 C488.836556,336 496,343.163444 496,352 L496,360 Z" id="Shape"></path>
            <path d="M146.344,181.656 C149.483031,184.687778 154.472678,184.644419 157.558549,181.558549 C160.644419,178.472678 160.687778,173.483031 157.656,170.344 L141.656,154.344 C138.532001,151.220944 133.467999,151.220944 130.344,154.344 L114.344,170.344 C111.312222,173.483031 111.355581,178.472678 114.441451,181.558549 C117.527322,184.644419 122.516969,184.687778 125.656,181.656 L128,179.312 L128,300.688 L125.656,298.344 C122.516969,295.312222 117.527322,295.355581 114.441451,298.441451 C111.355581,301.527322 111.312222,306.516969 114.344,309.656 L130.344,325.656 C133.467999,328.779056 138.532001,328.779056 141.656,325.656 L157.656,309.656 C160.687778,306.516969 160.644419,301.527322 157.558549,298.441451 C154.472678,295.355581 149.483031,295.312222 146.344,298.344 L144,300.688 L144,179.312 L146.344,181.656 Z" id="Path"></path>
            <path d="M381.656,90.344 C378.516969,87.3122223 373.527322,87.355581 370.441451,90.4414514 C367.355581,93.5273218 367.312222,98.5169689 370.344,101.656 L372.688,104 L203.312,104 L205.656,101.656 C208.687778,98.5169689 208.644419,93.5273218 205.558549,90.4414514 C202.472678,87.355581 197.483031,87.3122223 194.344,90.344 L178.344,106.344 C175.220944,109.467999 175.220944,114.532001 178.344,117.656 L194.344,133.656 C197.483031,136.687778 202.472678,136.644419 205.558549,133.558549 C208.644419,130.472678 208.687778,125.483031 205.656,122.344 L203.312,120 L372.688,120 L370.344,122.344 C368.264347,124.352596 367.430299,127.327023 368.162423,130.124059 C368.894546,132.921094 371.078906,135.105454 373.875941,135.837577 C376.672977,136.569701 379.647404,135.735653 381.656,133.656 L397.656,117.656 C400.779056,114.532001 400.779056,109.467999 397.656,106.344 L381.656,90.344 Z" id="Path"></path>
            <path d="M365.08,155.424 C363.582697,153.276852 361.129663,151.998047 358.512,151.999998 L217.488,151.999998 C214.870337,151.998047 212.417303,153.276852 210.92,155.424 L177.44,203.424 C175.735397,205.868418 175.530776,209.057702 176.909028,211.699911 C178.28728,214.342121 181.019925,215.999244 184,215.999998 L192,215.999998 L192,303.999998 C192,317.254834 202.745166,327.999998 216,327.999998 L360,327.999998 C373.254834,327.999998 384,317.254834 384,303.999998 L384,215.999998 L392,215.999998 C394.980075,215.999244 397.71272,214.342121 399.090972,211.699911 C400.469224,209.057702 400.264603,205.868418 398.56,203.424 L365.08,155.424 Z M221.656,168 L354.344,168 L376.664,200 L199.336,200 L221.656,168 Z M280,312 L280,288 C280,283.581722 283.581722,280 288,280 C292.418278,280 296,283.581722 296,288 L296,312 L280,312 Z M368,304 C368,308.418278 364.418278,312 360,312 L312,312 L312,288 C312,274.745166 301.254834,264 288,264 C274.745166,264 264,274.745166 264,288 L264,312 L216,312 C211.581722,312 208,308.418278 208,304 L208,216 L368,216 L368,304 Z" id="Shape"></path>
            <path d="M224,272 L256,272 C260.418278,272 264,268.418278 264,264 L264,232 C264,227.581722 260.418278,224 256,224 L224,224 C219.581722,224 216,227.581722 216,232 L216,264 C216,268.418278 219.581722,272 224,272 Z M232,240 L248,240 L248,256 L232,256 L232,240 Z" id="Shape"></path>
            <path d="M320,272 L352,272 C356.418278,272 360,268.418278 360,264 L360,232 C360,227.581722 356.418278,224 352,224 L320,224 C315.581722,224 312,227.581722 312,232 L312,264 C312,268.418278 315.581722,272 320,272 Z M328,240 L344,240 L344,256 L328,256 L328,240 Z" id="Shape"></path>
        </g>
    </g>
</svg>